<mxfile host="Electron" agent="Mozilla/5.0 (X11; Linux x86_64) AppleWebKit/537.36 (KHTML, like Gecko) draw.io/24.7.8 Chrome/128.0.6613.36 Electron/32.0.1 Safari/537.36" version="24.7.8">
  <diagram name="Page-1" id="JuEx3VDxohhKdRS4J8Q9">
    <mxGraphModel dx="3903" dy="1815" grid="1" gridSize="10" guides="1" tooltips="1" connect="1" arrows="1" fold="1" page="1" pageScale="1" pageWidth="850" pageHeight="1100" math="0" shadow="0">
      <root>
        <mxCell id="0" />
        <mxCell id="1" parent="0" />
        <mxCell id="zcsTdJiI1UtqF3DBBNGJ-23" style="edgeStyle=orthogonalEdgeStyle;rounded=1;orthogonalLoop=1;jettySize=auto;html=1;exitX=0;exitY=0.5;exitDx=0;exitDy=0;entryX=0.75;entryY=1;entryDx=0;entryDy=0;curved=0;dashed=1;dashPattern=1 2;" edge="1" parent="1" source="zcsTdJiI1UtqF3DBBNGJ-24" target="zcsTdJiI1UtqF3DBBNGJ-1">
          <mxGeometry relative="1" as="geometry">
            <Array as="points">
              <mxPoint x="720" y="610" />
              <mxPoint x="720" y="520" />
              <mxPoint x="950" y="520" />
            </Array>
          </mxGeometry>
        </mxCell>
        <mxCell id="zcsTdJiI1UtqF3DBBNGJ-9" value="" style="rounded=0;whiteSpace=wrap;html=1;fillColor=none;" vertex="1" parent="1">
          <mxGeometry x="-20" y="300" width="590" height="720" as="geometry" />
        </mxCell>
        <mxCell id="zcsTdJiI1UtqF3DBBNGJ-22" style="edgeStyle=orthogonalEdgeStyle;rounded=1;orthogonalLoop=1;jettySize=auto;html=1;exitX=0;exitY=0.5;exitDx=0;exitDy=0;entryX=0;entryY=0.25;entryDx=0;entryDy=0;curved=0;dashed=1;" edge="1" parent="1" source="zcsTdJiI1UtqF3DBBNGJ-17" target="zcsTdJiI1UtqF3DBBNGJ-1">
          <mxGeometry relative="1" as="geometry">
            <Array as="points">
              <mxPoint x="750" y="780" />
              <mxPoint x="750" y="680" />
              <mxPoint x="340" y="680" />
              <mxPoint x="340" y="520" />
              <mxPoint x="680" y="520" />
              <mxPoint x="680" y="345" />
            </Array>
          </mxGeometry>
        </mxCell>
        <mxCell id="VWizk5HHo87OJSUjZ4Rr-1" value="Rekor" style="rounded=0;whiteSpace=wrap;html=1;fillColor=#e1d5e7;strokeColor=#9673a6;dashed=1;" parent="1" vertex="1">
          <mxGeometry x="250" y="750" width="120" height="60" as="geometry" />
        </mxCell>
        <mxCell id="zcsTdJiI1UtqF3DBBNGJ-21" value="enter&lt;br&gt;Certificates&lt;br&gt;to CT Log" style="edgeStyle=orthogonalEdgeStyle;rounded=0;orthogonalLoop=1;jettySize=auto;html=1;exitX=0;exitY=0.5;exitDx=0;exitDy=0;entryX=1;entryY=0.5;entryDx=0;entryDy=0;" edge="1" parent="1" source="VWizk5HHo87OJSUjZ4Rr-2" target="VWizk5HHo87OJSUjZ4Rr-3">
          <mxGeometry relative="1" as="geometry" />
        </mxCell>
        <mxCell id="VWizk5HHo87OJSUjZ4Rr-2" value="Fulcio" style="rounded=0;whiteSpace=wrap;html=1;fillColor=#e1d5e7;strokeColor=#9673a6;dashed=1;" parent="1" vertex="1">
          <mxGeometry x="250" y="830" width="120" height="60" as="geometry" />
        </mxCell>
        <mxCell id="VWizk5HHo87OJSUjZ4Rr-3" value="CT Log" style="rounded=0;whiteSpace=wrap;html=1;fillColor=#e1d5e7;strokeColor=#9673a6;dashed=1;" parent="1" vertex="1">
          <mxGeometry x="10" y="830" width="120" height="60" as="geometry" />
        </mxCell>
        <mxCell id="zcsTdJiI1UtqF3DBBNGJ-31" value="authenticate Certificate requests" style="edgeStyle=orthogonalEdgeStyle;rounded=0;orthogonalLoop=1;jettySize=auto;html=1;exitX=0.5;exitY=0;exitDx=0;exitDy=0;" edge="1" parent="1" source="VWizk5HHo87OJSUjZ4Rr-4" target="VWizk5HHo87OJSUjZ4Rr-2">
          <mxGeometry relative="1" as="geometry" />
        </mxCell>
        <mxCell id="VWizk5HHo87OJSUjZ4Rr-4" value="dex-idp" style="rounded=0;whiteSpace=wrap;html=1;fillColor=#e1d5e7;strokeColor=#9673a6;dashed=1;" parent="1" vertex="1">
          <mxGeometry x="250" y="930" width="120" height="60" as="geometry" />
        </mxCell>
        <mxCell id="zcsTdJiI1UtqF3DBBNGJ-18" value="fetch&lt;br&gt;Binary + Signature Bundles" style="edgeStyle=orthogonalEdgeStyle;rounded=0;orthogonalLoop=1;jettySize=auto;html=1;exitX=0.5;exitY=1;exitDx=0;exitDy=0;entryX=0.5;entryY=0;entryDx=0;entryDy=0;" edge="1" parent="1" source="VWizk5HHo87OJSUjZ4Rr-5" target="zcsTdJiI1UtqF3DBBNGJ-15">
          <mxGeometry relative="1" as="geometry" />
        </mxCell>
        <mxCell id="zcsTdJiI1UtqF3DBBNGJ-19" style="edgeStyle=orthogonalEdgeStyle;rounded=0;orthogonalLoop=1;jettySize=auto;html=1;exitX=1;exitY=0.5;exitDx=0;exitDy=0;entryX=0;entryY=0.5;entryDx=0;entryDy=0;" edge="1" parent="1" source="VWizk5HHo87OJSUjZ4Rr-5" target="VWizk5HHo87OJSUjZ4Rr-7">
          <mxGeometry relative="1" as="geometry" />
        </mxCell>
        <mxCell id="zcsTdJiI1UtqF3DBBNGJ-20" value="gossip" style="edgeStyle=orthogonalEdgeStyle;rounded=0;orthogonalLoop=1;jettySize=auto;html=1;exitX=0.5;exitY=0;exitDx=0;exitDy=0;entryX=0.5;entryY=1;entryDx=0;entryDy=0;" edge="1" parent="1" source="VWizk5HHo87OJSUjZ4Rr-5" target="VWizk5HHo87OJSUjZ4Rr-8">
          <mxGeometry relative="1" as="geometry" />
        </mxCell>
        <mxCell id="VWizk5HHo87OJSUjZ4Rr-5" value="BT²X Audit Server" style="rounded=0;whiteSpace=wrap;html=1;fillColor=#e1d5e7;strokeColor=#9673a6;dashed=1;" parent="1" vertex="1">
          <mxGeometry x="250" y="470" width="120" height="60" as="geometry" />
        </mxCell>
        <mxCell id="VWizk5HHo87OJSUjZ4Rr-7" value="BT²X OTA Server" style="rounded=0;whiteSpace=wrap;html=1;fillColor=#e1d5e7;strokeColor=#9673a6;dashed=1;" parent="1" vertex="1">
          <mxGeometry x="400" y="470" width="120" height="60" as="geometry" />
        </mxCell>
        <mxCell id="VWizk5HHo87OJSUjZ4Rr-8" value="BT²X Monitor" style="rounded=0;whiteSpace=wrap;html=1;fillColor=#e1d5e7;strokeColor=#9673a6;dashed=1;" parent="1" vertex="1">
          <mxGeometry x="250" y="360" width="120" height="60" as="geometry" />
        </mxCell>
        <mxCell id="zcsTdJiI1UtqF3DBBNGJ-30" style="edgeStyle=orthogonalEdgeStyle;rounded=0;orthogonalLoop=1;jettySize=auto;html=1;exitX=0.5;exitY=0;exitDx=0;exitDy=0;entryX=0.5;entryY=1;entryDx=0;entryDy=0;" edge="1" parent="1" source="VWizk5HHo87OJSUjZ4Rr-9" target="VWizk5HHo87OJSUjZ4Rr-4">
          <mxGeometry relative="1" as="geometry" />
        </mxCell>
        <mxCell id="VWizk5HHo87OJSUjZ4Rr-9" value="ID Provider&lt;br&gt;(e.g. GitHub)" style="rounded=0;whiteSpace=wrap;html=1;" parent="1" vertex="1">
          <mxGeometry x="250" y="1040" width="120" height="60" as="geometry" />
        </mxCell>
        <mxCell id="zcsTdJiI1UtqF3DBBNGJ-7" value="WiFi" style="edgeStyle=orthogonalEdgeStyle;rounded=0;orthogonalLoop=1;jettySize=auto;html=1;exitX=0;exitY=0.5;exitDx=0;exitDy=0;entryX=1;entryY=0.75;entryDx=0;entryDy=0;startArrow=classic;startFill=1;" edge="1" parent="1" source="zcsTdJiI1UtqF3DBBNGJ-1" target="zcsTdJiI1UtqF3DBBNGJ-2">
          <mxGeometry relative="1" as="geometry" />
        </mxCell>
        <mxCell id="zcsTdJiI1UtqF3DBBNGJ-1" value="Pi Pico W" style="rounded=0;whiteSpace=wrap;html=1;fillColor=#dae8fc;strokeColor=#6c8ebf;" vertex="1" parent="1">
          <mxGeometry x="860" y="330" width="120" height="60" as="geometry" />
        </mxCell>
        <mxCell id="zcsTdJiI1UtqF3DBBNGJ-8" value="WiFi" style="edgeStyle=orthogonalEdgeStyle;rounded=0;orthogonalLoop=1;jettySize=auto;html=1;exitX=0.5;exitY=1;exitDx=0;exitDy=0;entryX=0.5;entryY=0;entryDx=0;entryDy=0;startArrow=classic;startFill=1;" edge="1" parent="1" source="zcsTdJiI1UtqF3DBBNGJ-2" target="zcsTdJiI1UtqF3DBBNGJ-3">
          <mxGeometry relative="1" as="geometry" />
        </mxCell>
        <mxCell id="zcsTdJiI1UtqF3DBBNGJ-2" value="" style="image;html=1;image=img/lib/clip_art/networking/Wireless_Router_N_128x128.png" vertex="1" parent="1">
          <mxGeometry x="670" y="300" width="80" height="80" as="geometry" />
        </mxCell>
        <mxCell id="zcsTdJiI1UtqF3DBBNGJ-5" value="USB" style="edgeStyle=orthogonalEdgeStyle;rounded=0;orthogonalLoop=1;jettySize=auto;html=1;exitX=1;exitY=0.5;exitDx=0;exitDy=0;entryX=0;entryY=0.5;entryDx=0;entryDy=0;startArrow=classic;startFill=1;" edge="1" parent="1" source="zcsTdJiI1UtqF3DBBNGJ-3" target="zcsTdJiI1UtqF3DBBNGJ-4">
          <mxGeometry relative="1" as="geometry" />
        </mxCell>
        <mxCell id="zcsTdJiI1UtqF3DBBNGJ-3" value="Development&lt;br&gt;Computer" style="rounded=0;whiteSpace=wrap;html=1;fillColor=#e1d5e7;strokeColor=#9673a6;dashed=1;" vertex="1" parent="1">
          <mxGeometry x="650" y="470" width="120" height="60" as="geometry" />
        </mxCell>
        <mxCell id="zcsTdJiI1UtqF3DBBNGJ-6" value="UART" style="edgeStyle=orthogonalEdgeStyle;rounded=0;orthogonalLoop=1;jettySize=auto;html=1;exitX=0.5;exitY=0;exitDx=0;exitDy=0;entryX=0.5;entryY=1;entryDx=0;entryDy=0;startArrow=classic;startFill=1;" edge="1" parent="1" source="zcsTdJiI1UtqF3DBBNGJ-4" target="zcsTdJiI1UtqF3DBBNGJ-1">
          <mxGeometry relative="1" as="geometry" />
        </mxCell>
        <mxCell id="zcsTdJiI1UtqF3DBBNGJ-4" value="Pi with&lt;div&gt;Picoprobe&lt;br&gt;Firmware&lt;/div&gt;" style="rounded=0;whiteSpace=wrap;html=1;fillColor=#d5e8d4;strokeColor=#82b366;dashed=1;dashPattern=1 4;" vertex="1" parent="1">
          <mxGeometry x="860" y="470" width="120" height="60" as="geometry" />
        </mxCell>
        <mxCell id="zcsTdJiI1UtqF3DBBNGJ-16" value="publish Binary + Signature Bundle" style="edgeStyle=orthogonalEdgeStyle;rounded=0;orthogonalLoop=1;jettySize=auto;html=1;exitX=0;exitY=0.5;exitDx=0;exitDy=0;entryX=1;entryY=0.5;entryDx=0;entryDy=0;" edge="1" parent="1" source="zcsTdJiI1UtqF3DBBNGJ-11" target="zcsTdJiI1UtqF3DBBNGJ-15">
          <mxGeometry relative="1" as="geometry" />
        </mxCell>
        <mxCell id="zcsTdJiI1UtqF3DBBNGJ-27" value="request&lt;br&gt;Signing Certificate" style="edgeStyle=orthogonalEdgeStyle;rounded=0;orthogonalLoop=1;jettySize=auto;html=1;exitX=0.25;exitY=1;exitDx=0;exitDy=0;entryX=1;entryY=0.5;entryDx=0;entryDy=0;" edge="1" parent="1" source="zcsTdJiI1UtqF3DBBNGJ-11" target="VWizk5HHo87OJSUjZ4Rr-2">
          <mxGeometry relative="1" as="geometry" />
        </mxCell>
        <mxCell id="zcsTdJiI1UtqF3DBBNGJ-28" value="enter Signature&lt;br&gt;to BT Log" style="edgeStyle=orthogonalEdgeStyle;rounded=0;orthogonalLoop=1;jettySize=auto;html=1;exitX=0;exitY=0.75;exitDx=0;exitDy=0;entryX=1;entryY=0.5;entryDx=0;entryDy=0;" edge="1" parent="1" source="zcsTdJiI1UtqF3DBBNGJ-11" target="VWizk5HHo87OJSUjZ4Rr-1">
          <mxGeometry relative="1" as="geometry" />
        </mxCell>
        <mxCell id="zcsTdJiI1UtqF3DBBNGJ-29" value="login" style="edgeStyle=orthogonalEdgeStyle;rounded=0;orthogonalLoop=1;jettySize=auto;html=1;exitX=0.5;exitY=1;exitDx=0;exitDy=0;entryX=1;entryY=0.5;entryDx=0;entryDy=0;" edge="1" parent="1" source="zcsTdJiI1UtqF3DBBNGJ-11" target="VWizk5HHo87OJSUjZ4Rr-9">
          <mxGeometry relative="1" as="geometry" />
        </mxCell>
        <mxCell id="zcsTdJiI1UtqF3DBBNGJ-11" value="BT²X CLI" style="rounded=0;whiteSpace=wrap;html=1;fillColor=#e1d5e7;strokeColor=#9673a6;dashed=1;" vertex="1" parent="1">
          <mxGeometry x="670" y="670" width="120" height="60" as="geometry" />
        </mxCell>
        <mxCell id="zcsTdJiI1UtqF3DBBNGJ-14" value="Docker&lt;br&gt;Network" style="edgeStyle=orthogonalEdgeStyle;rounded=0;orthogonalLoop=1;jettySize=auto;html=1;exitX=0;exitY=0.5;exitDx=0;exitDy=0;entryX=1.001;entryY=0.276;entryDx=0;entryDy=0;entryPerimeter=0;startArrow=classic;startFill=1;" edge="1" parent="1">
          <mxGeometry relative="1" as="geometry">
            <mxPoint x="650" y="500.64" as="sourcePoint" />
            <mxPoint x="570.5899999999999" y="499.36" as="targetPoint" />
            <Array as="points">
              <mxPoint x="610" y="501" />
              <mxPoint x="610" y="499" />
            </Array>
          </mxGeometry>
        </mxCell>
        <mxCell id="zcsTdJiI1UtqF3DBBNGJ-15" value="container-registry" style="rounded=0;whiteSpace=wrap;html=1;fillColor=#e1d5e7;strokeColor=#9673a6;dashed=1;" vertex="1" parent="1">
          <mxGeometry x="250" y="670" width="120" height="60" as="geometry" />
        </mxCell>
        <mxCell id="zcsTdJiI1UtqF3DBBNGJ-17" value="Target Binary&lt;div&gt;+&lt;/div&gt;&lt;div&gt;Signature Bundle&lt;/div&gt;" style="rounded=1;whiteSpace=wrap;html=1;" vertex="1" parent="1">
          <mxGeometry x="770" y="750" width="120" height="60" as="geometry" />
        </mxCell>
        <mxCell id="zcsTdJiI1UtqF3DBBNGJ-24" value="Initial Binary" style="rounded=1;whiteSpace=wrap;html=1;" vertex="1" parent="1">
          <mxGeometry x="810" y="580" width="120" height="60" as="geometry" />
        </mxCell>
        <mxCell id="zcsTdJiI1UtqF3DBBNGJ-32" value="" style="edgeStyle=orthogonalEdgeStyle;rounded=1;orthogonalLoop=1;jettySize=auto;html=1;exitX=0;exitY=0.5;exitDx=0;exitDy=0;entryX=0.75;entryY=1;entryDx=0;entryDy=0;curved=0;dashed=1;dashPattern=1 2;" edge="1" parent="1" source="zcsTdJiI1UtqF3DBBNGJ-24" target="zcsTdJiI1UtqF3DBBNGJ-12">
          <mxGeometry relative="1" as="geometry">
            <mxPoint x="810" y="610" as="sourcePoint" />
            <mxPoint x="950" y="390" as="targetPoint" />
            <Array as="points">
              <mxPoint x="760" y="610" />
            </Array>
          </mxGeometry>
        </mxCell>
        <mxCell id="zcsTdJiI1UtqF3DBBNGJ-12" value="cargo-flash" style="rounded=0;whiteSpace=wrap;html=1;fillColor=#e1d5e7;strokeColor=#9673a6;dashed=1;" vertex="1" parent="1">
          <mxGeometry x="670" y="580" width="120" height="60" as="geometry" />
        </mxCell>
        <mxCell id="zcsTdJiI1UtqF3DBBNGJ-33" value="gossip" style="edgeStyle=orthogonalEdgeStyle;rounded=0;orthogonalLoop=1;jettySize=auto;html=1;exitX=0.25;exitY=0;exitDx=0;exitDy=0;entryX=0.75;entryY=0;entryDx=0;entryDy=0;" edge="1" parent="1" source="VWizk5HHo87OJSUjZ4Rr-8" target="VWizk5HHo87OJSUjZ4Rr-8">
          <mxGeometry relative="1" as="geometry">
            <Array as="points">
              <mxPoint x="280" y="340" />
              <mxPoint x="340" y="340" />
            </Array>
          </mxGeometry>
        </mxCell>
        <mxCell id="zcsTdJiI1UtqF3DBBNGJ-35" value="" style="image;sketch=0;aspect=fixed;html=1;points=[];align=center;fontSize=12;image=img/lib/mscae/Docker.svg;" vertex="1" parent="1">
          <mxGeometry x="-10" y="300" width="50" height="41" as="geometry" />
        </mxCell>
      </root>
    </mxGraphModel>
  </diagram>
</mxfile>
